<?xml version="1.0" encoding="utf-8"?>
<!-- Generator: Adobe Illustrator 21.1.0, SVG Export Plug-In . SVG Version: 6.00 Build 0)  -->
<svg version="1.1" id="Layer_1" xmlns="http://www.w3.org/2000/svg" xmlns:xlink="http://www.w3.org/1999/xlink" x="0px" y="0px"
	 viewBox="0 0 28.3 28.3" style="enable-background:new 0 0 28.3 28.3;" xml:space="preserve">
<style type="text/css">
	.st0{fill:#FFE501;}
	.st1{fill:#BFAB01;}
	.st2{fill:#010101;}
</style>
<g>
	<path class="st0" d="M22.7,5.7V2.8h-17v2.8H2.8v17h2.8v2.8h17v-2.8h2.8v-17C25.5,5.7,22.7,5.7,22.7,5.7z M8.5,8.5h2.8v5.7H8.5V8.5z
		 M19.8,22.7H8.5v-2.8h11.3C19.8,19.8,19.8,22.7,19.8,22.7z M19.8,14.2H17V8.5h2.8V14.2z"/>
	<path class="st1" d="M22.7,0h-17v2.8h17C22.7,2.8,22.7,0,22.7,0z M25.5,5.7V2.8h-2.8v2.8H25.5z M5.7,2.8H2.8v2.8h2.8V2.8z
		 M2.8,22.7v2.8h2.8v-2.8H2.8z M22.7,25.5h2.8v-2.8h-2.8V25.5z M5.7,28.3h17v-2.8h-17V28.3z M25.5,5.7v17h2.8v-17
		C28.3,5.7,25.5,5.7,25.5,5.7z M0,5.7v17h2.8v-17C2.8,5.7,0,5.7,0,5.7z"/>
	<path class="st2" d="M17,8.5v5.7h2.8V8.5H17z M11.3,8.5H8.5v5.7h2.8V8.5z M8.5,22.7h11.3v-2.8H8.5V22.7z"/>
</g>
</svg>
